<mxfile host="app.diagrams.net" agent="Mozilla/5.0 (X11; Linux x86_64; rv:136.0) Gecko/20100101 Firefox/136.0" version="26.1.0">
  <diagram name="Page-1" id="e56a1550-8fbb-45ad-956c-1786394a9013">
    <mxGraphModel dx="2466" dy="723" grid="1" gridSize="10" guides="1" tooltips="1" connect="1" arrows="1" fold="1" page="1" pageScale="1" pageWidth="1100" pageHeight="850" background="none" math="0" shadow="0">
      <root>
        <mxCell id="0" />
        <mxCell id="1" parent="0" />
        <mxCell id="dTHn6nIExSgULMflRPYe-98" style="edgeStyle=orthogonalEdgeStyle;rounded=0;orthogonalLoop=1;jettySize=auto;html=1;entryX=1;entryY=0.25;entryDx=0;entryDy=0;endArrow=none;startFill=0;" parent="1" source="2e49270ec7c68f3f-80" target="dTHn6nIExSgULMflRPYe-8" edge="1">
          <mxGeometry relative="1" as="geometry">
            <Array as="points">
              <mxPoint x="560" y="270" />
              <mxPoint x="420" y="270" />
            </Array>
          </mxGeometry>
        </mxCell>
        <mxCell id="dTHn6nIExSgULMflRPYe-99" value="&amp;lt;&amp;lt;identifikuje&amp;gt;&amp;gt;" style="edgeLabel;html=1;align=center;verticalAlign=middle;resizable=0;points=[];" parent="dTHn6nIExSgULMflRPYe-98" vertex="1" connectable="0">
          <mxGeometry x="-0.7457" y="-1" relative="1" as="geometry">
            <mxPoint y="10" as="offset" />
          </mxGeometry>
        </mxCell>
        <mxCell id="dTHn6nIExSgULMflRPYe-100" value="1" style="edgeLabel;html=1;align=center;verticalAlign=middle;resizable=0;points=[];" parent="dTHn6nIExSgULMflRPYe-98" vertex="1" connectable="0">
          <mxGeometry x="-0.842" y="1" relative="1" as="geometry">
            <mxPoint x="-10" y="-8" as="offset" />
          </mxGeometry>
        </mxCell>
        <mxCell id="dTHn6nIExSgULMflRPYe-101" value="0..n" style="edgeLabel;html=1;align=center;verticalAlign=middle;resizable=0;points=[];" parent="dTHn6nIExSgULMflRPYe-98" vertex="1" connectable="0">
          <mxGeometry x="0.8954" y="1" relative="1" as="geometry">
            <mxPoint x="13" y="13" as="offset" />
          </mxGeometry>
        </mxCell>
        <mxCell id="2e49270ec7c68f3f-80" value="Planetární systém" style="swimlane;html=1;fontStyle=0;childLayout=stackLayout;horizontal=1;startSize=26;fillColor=#e0e0e0;horizontalStack=0;resizeParent=1;resizeLast=0;collapsible=1;marginBottom=0;swimlaneFillColor=#ffffff;align=center;rounded=0;shadow=0;comic=0;labelBackgroundColor=none;strokeWidth=1;fontFamily=Verdana;fontSize=14" parent="1" vertex="1">
          <mxGeometry x="480" y="120" width="160" height="92" as="geometry" />
        </mxCell>
        <mxCell id="2e49270ec7c68f3f-81" value="ID_planetárního systému" style="shape=partialRectangle;top=0;left=0;right=0;bottom=1;html=1;align=left;verticalAlign=middle;fillColor=none;spacingLeft=34;spacingRight=4;whiteSpace=wrap;overflow=hidden;rotatable=0;points=[[0,0.5],[1,0.5]];portConstraint=eastwest;dropTarget=0;fontStyle=5;" parent="2e49270ec7c68f3f-80" vertex="1">
          <mxGeometry y="26" width="160" height="30" as="geometry" />
        </mxCell>
        <mxCell id="2e49270ec7c68f3f-82" value="PK" style="shape=partialRectangle;top=0;left=0;bottom=0;html=1;fillColor=none;align=left;verticalAlign=middle;spacingLeft=4;spacingRight=4;whiteSpace=wrap;overflow=hidden;rotatable=0;points=[];portConstraint=eastwest;part=1;" parent="2e49270ec7c68f3f-81" vertex="1" connectable="0">
          <mxGeometry width="30" height="30" as="geometry" />
        </mxCell>
        <mxCell id="2e49270ec7c68f3f-83" value="Název" style="shape=partialRectangle;top=0;left=0;right=0;bottom=0;html=1;align=left;verticalAlign=top;fillColor=none;spacingLeft=34;spacingRight=4;whiteSpace=wrap;overflow=hidden;rotatable=0;points=[[0,0.5],[1,0.5]];portConstraint=eastwest;dropTarget=0;" parent="2e49270ec7c68f3f-80" vertex="1">
          <mxGeometry y="56" width="160" height="26" as="geometry" />
        </mxCell>
        <mxCell id="2e49270ec7c68f3f-84" value="" style="shape=partialRectangle;top=0;left=0;bottom=0;html=1;fillColor=none;align=left;verticalAlign=top;spacingLeft=4;spacingRight=4;whiteSpace=wrap;overflow=hidden;rotatable=0;points=[];portConstraint=eastwest;part=1;" parent="2e49270ec7c68f3f-83" vertex="1" connectable="0">
          <mxGeometry width="30" height="26" as="geometry" />
        </mxCell>
        <mxCell id="2e49270ec7c68f3f-89" value="" style="shape=partialRectangle;top=0;left=0;right=0;bottom=0;html=1;align=left;verticalAlign=top;fillColor=none;spacingLeft=34;spacingRight=4;whiteSpace=wrap;overflow=hidden;rotatable=0;points=[[0,0.5],[1,0.5]];portConstraint=eastwest;dropTarget=0;" parent="2e49270ec7c68f3f-80" vertex="1">
          <mxGeometry y="82" width="160" height="10" as="geometry" />
        </mxCell>
        <mxCell id="2e49270ec7c68f3f-90" value="" style="shape=partialRectangle;top=0;left=0;bottom=0;html=1;fillColor=none;align=left;verticalAlign=top;spacingLeft=4;spacingRight=4;whiteSpace=wrap;overflow=hidden;rotatable=0;points=[];portConstraint=eastwest;part=1;" parent="2e49270ec7c68f3f-89" vertex="1" connectable="0">
          <mxGeometry width="30" height="10" as="geometry" />
        </mxCell>
        <object label="Hvězda&lt;br&gt;&amp;lt;&amp;lt;Weak&amp;gt;&amp;gt;" Typ="Typ" id="dTHn6nIExSgULMflRPYe-1">
          <mxCell style="swimlane;html=1;fontStyle=0;childLayout=stackLayout;horizontal=1;startSize=40;fillColor=#e0e0e0;horizontalStack=0;resizeParent=1;resizeLast=0;collapsible=1;marginBottom=0;swimlaneFillColor=#ffffff;align=center;rounded=0;shadow=0;comic=0;labelBackgroundColor=none;strokeWidth=1;fontFamily=Verdana;fontSize=14" parent="1" vertex="1">
            <mxGeometry x="280" width="130" height="130" as="geometry" />
          </mxCell>
        </object>
        <mxCell id="dTHn6nIExSgULMflRPYe-2" value="ID_Hvězdy" style="shape=partialRectangle;top=0;left=0;right=0;bottom=1;html=1;align=left;verticalAlign=middle;fillColor=none;spacingLeft=34;spacingRight=4;whiteSpace=wrap;overflow=hidden;rotatable=0;points=[[0,0.5],[1,0.5]];portConstraint=eastwest;dropTarget=0;fontStyle=5;" parent="dTHn6nIExSgULMflRPYe-1" vertex="1">
          <mxGeometry y="40" width="130" height="30" as="geometry" />
        </mxCell>
        <mxCell id="dTHn6nIExSgULMflRPYe-3" value="D" style="shape=partialRectangle;top=0;left=0;bottom=0;html=1;fillColor=none;align=left;verticalAlign=middle;spacingLeft=4;spacingRight=4;whiteSpace=wrap;overflow=hidden;rotatable=0;points=[];portConstraint=eastwest;part=1;" parent="dTHn6nIExSgULMflRPYe-2" vertex="1" connectable="0">
          <mxGeometry width="30" height="30" as="geometry" />
        </mxCell>
        <mxCell id="dTHn6nIExSgULMflRPYe-4" value="Název" style="shape=partialRectangle;top=0;left=0;right=0;bottom=0;html=1;align=left;verticalAlign=top;fillColor=none;spacingLeft=34;spacingRight=4;whiteSpace=wrap;overflow=hidden;rotatable=0;points=[[0,0.5],[1,0.5]];portConstraint=eastwest;dropTarget=0;" parent="dTHn6nIExSgULMflRPYe-1" vertex="1">
          <mxGeometry y="70" width="130" height="26" as="geometry" />
        </mxCell>
        <mxCell id="dTHn6nIExSgULMflRPYe-5" value="" style="shape=partialRectangle;top=0;left=0;bottom=0;html=1;fillColor=none;align=left;verticalAlign=top;spacingLeft=4;spacingRight=4;whiteSpace=wrap;overflow=hidden;rotatable=0;points=[];portConstraint=eastwest;part=1;" parent="dTHn6nIExSgULMflRPYe-4" vertex="1" connectable="0">
          <mxGeometry width="30" height="26" as="geometry" />
        </mxCell>
        <mxCell id="dTHn6nIExSgULMflRPYe-6" value="Typ" style="shape=partialRectangle;top=0;left=0;right=0;bottom=0;html=1;align=left;verticalAlign=top;fillColor=none;spacingLeft=34;spacingRight=4;whiteSpace=wrap;overflow=hidden;rotatable=0;points=[[0,0.5],[1,0.5]];portConstraint=eastwest;dropTarget=0;" parent="dTHn6nIExSgULMflRPYe-1" vertex="1">
          <mxGeometry y="96" width="130" height="34" as="geometry" />
        </mxCell>
        <mxCell id="dTHn6nIExSgULMflRPYe-7" value="" style="shape=partialRectangle;top=0;left=0;bottom=0;html=1;fillColor=none;align=left;verticalAlign=top;spacingLeft=4;spacingRight=4;whiteSpace=wrap;overflow=hidden;rotatable=0;points=[];portConstraint=eastwest;part=1;" parent="dTHn6nIExSgULMflRPYe-6" vertex="1" connectable="0">
          <mxGeometry width="30" height="34" as="geometry" />
        </mxCell>
        <mxCell id="dTHn6nIExSgULMflRPYe-107" style="edgeStyle=orthogonalEdgeStyle;rounded=0;orthogonalLoop=1;jettySize=auto;html=1;entryX=0.517;entryY=1.071;entryDx=0;entryDy=0;entryPerimeter=0;endArrow=none;startFill=0;" parent="1" source="dTHn6nIExSgULMflRPYe-8" target="dTHn6nIExSgULMflRPYe-20" edge="1">
          <mxGeometry relative="1" as="geometry">
            <mxPoint x="60" y="250" as="targetPoint" />
            <Array as="points">
              <mxPoint x="63" y="295" />
            </Array>
          </mxGeometry>
        </mxCell>
        <mxCell id="dTHn6nIExSgULMflRPYe-111" value="Složení atmosféry" style="edgeLabel;html=1;align=center;verticalAlign=middle;resizable=0;points=[];" parent="dTHn6nIExSgULMflRPYe-107" vertex="1" connectable="0">
          <mxGeometry x="-0.0221" relative="1" as="geometry">
            <mxPoint x="-2" y="-13" as="offset" />
          </mxGeometry>
        </mxCell>
        <mxCell id="dTHn6nIExSgULMflRPYe-115" value="0..n" style="edgeLabel;html=1;align=center;verticalAlign=middle;resizable=0;points=[];" parent="dTHn6nIExSgULMflRPYe-107" vertex="1" connectable="0">
          <mxGeometry x="-0.876" relative="1" as="geometry">
            <mxPoint x="1" y="10" as="offset" />
          </mxGeometry>
        </mxCell>
        <mxCell id="dTHn6nIExSgULMflRPYe-116" value="0..n" style="edgeLabel;html=1;align=center;verticalAlign=middle;resizable=0;points=[];" parent="dTHn6nIExSgULMflRPYe-107" vertex="1" connectable="0">
          <mxGeometry x="0.8714" y="1" relative="1" as="geometry">
            <mxPoint x="-14" y="-7" as="offset" />
          </mxGeometry>
        </mxCell>
        <object label="Planeta&lt;br&gt;&amp;lt;&amp;lt;Weak&amp;gt;&amp;gt;" Typ="Typ" id="dTHn6nIExSgULMflRPYe-8">
          <mxCell style="swimlane;html=1;fontStyle=0;childLayout=stackLayout;horizontal=1;startSize=40;fillColor=#e0e0e0;horizontalStack=0;resizeParent=1;resizeLast=0;collapsible=1;marginBottom=0;swimlaneFillColor=#ffffff;align=center;rounded=0;shadow=0;comic=0;labelBackgroundColor=none;strokeWidth=1;fontFamily=Verdana;fontSize=14" parent="1" vertex="1">
            <mxGeometry x="290" y="230" width="130" height="130" as="geometry" />
          </mxCell>
        </object>
        <mxCell id="dTHn6nIExSgULMflRPYe-9" value="ID_Hvězdy" style="shape=partialRectangle;top=0;left=0;right=0;bottom=1;html=1;align=left;verticalAlign=middle;fillColor=none;spacingLeft=34;spacingRight=4;whiteSpace=wrap;overflow=hidden;rotatable=0;points=[[0,0.5],[1,0.5]];portConstraint=eastwest;dropTarget=0;fontStyle=5;" parent="dTHn6nIExSgULMflRPYe-8" vertex="1">
          <mxGeometry y="40" width="130" height="30" as="geometry" />
        </mxCell>
        <mxCell id="dTHn6nIExSgULMflRPYe-10" value="D" style="shape=partialRectangle;top=0;left=0;bottom=0;html=1;fillColor=none;align=left;verticalAlign=middle;spacingLeft=4;spacingRight=4;whiteSpace=wrap;overflow=hidden;rotatable=0;points=[];portConstraint=eastwest;part=1;" parent="dTHn6nIExSgULMflRPYe-9" vertex="1" connectable="0">
          <mxGeometry width="30" height="30" as="geometry" />
        </mxCell>
        <mxCell id="dTHn6nIExSgULMflRPYe-11" value="Název" style="shape=partialRectangle;top=0;left=0;right=0;bottom=0;html=1;align=left;verticalAlign=top;fillColor=none;spacingLeft=34;spacingRight=4;whiteSpace=wrap;overflow=hidden;rotatable=0;points=[[0,0.5],[1,0.5]];portConstraint=eastwest;dropTarget=0;" parent="dTHn6nIExSgULMflRPYe-8" vertex="1">
          <mxGeometry y="70" width="130" height="26" as="geometry" />
        </mxCell>
        <mxCell id="dTHn6nIExSgULMflRPYe-12" value="" style="shape=partialRectangle;top=0;left=0;bottom=0;html=1;fillColor=none;align=left;verticalAlign=top;spacingLeft=4;spacingRight=4;whiteSpace=wrap;overflow=hidden;rotatable=0;points=[];portConstraint=eastwest;part=1;" parent="dTHn6nIExSgULMflRPYe-11" vertex="1" connectable="0">
          <mxGeometry width="30" height="26" as="geometry" />
        </mxCell>
        <mxCell id="dTHn6nIExSgULMflRPYe-13" value="Typ" style="shape=partialRectangle;top=0;left=0;right=0;bottom=0;html=1;align=left;verticalAlign=top;fillColor=none;spacingLeft=34;spacingRight=4;whiteSpace=wrap;overflow=hidden;rotatable=0;points=[[0,0.5],[1,0.5]];portConstraint=eastwest;dropTarget=0;" parent="dTHn6nIExSgULMflRPYe-8" vertex="1">
          <mxGeometry y="96" width="130" height="34" as="geometry" />
        </mxCell>
        <mxCell id="dTHn6nIExSgULMflRPYe-14" value="" style="shape=partialRectangle;top=0;left=0;bottom=0;html=1;fillColor=none;align=left;verticalAlign=top;spacingLeft=4;spacingRight=4;whiteSpace=wrap;overflow=hidden;rotatable=0;points=[];portConstraint=eastwest;part=1;" parent="dTHn6nIExSgULMflRPYe-13" vertex="1" connectable="0">
          <mxGeometry width="30" height="34" as="geometry" />
        </mxCell>
        <mxCell id="dTHn6nIExSgULMflRPYe-15" value="Chemický prvek" style="swimlane;html=1;fontStyle=0;childLayout=stackLayout;horizontal=1;startSize=26;fillColor=#e0e0e0;horizontalStack=0;resizeParent=1;resizeLast=0;collapsible=1;marginBottom=0;swimlaneFillColor=#ffffff;align=center;rounded=0;shadow=0;comic=0;labelBackgroundColor=none;strokeWidth=1;fontFamily=Verdana;fontSize=14" parent="1" vertex="1">
          <mxGeometry x="-20" y="120" width="160" height="110" as="geometry" />
        </mxCell>
        <mxCell id="dTHn6nIExSgULMflRPYe-16" value="ID_prvku" style="shape=partialRectangle;top=0;left=0;right=0;bottom=1;html=1;align=left;verticalAlign=middle;fillColor=none;spacingLeft=34;spacingRight=4;whiteSpace=wrap;overflow=hidden;rotatable=0;points=[[0,0.5],[1,0.5]];portConstraint=eastwest;dropTarget=0;fontStyle=5;" parent="dTHn6nIExSgULMflRPYe-15" vertex="1">
          <mxGeometry y="26" width="160" height="30" as="geometry" />
        </mxCell>
        <mxCell id="dTHn6nIExSgULMflRPYe-17" value="PK" style="shape=partialRectangle;top=0;left=0;bottom=0;html=1;fillColor=none;align=left;verticalAlign=middle;spacingLeft=4;spacingRight=4;whiteSpace=wrap;overflow=hidden;rotatable=0;points=[];portConstraint=eastwest;part=1;" parent="dTHn6nIExSgULMflRPYe-16" vertex="1" connectable="0">
          <mxGeometry width="30" height="30" as="geometry" />
        </mxCell>
        <mxCell id="dTHn6nIExSgULMflRPYe-18" value="Název" style="shape=partialRectangle;top=0;left=0;right=0;bottom=0;html=1;align=left;verticalAlign=top;fillColor=none;spacingLeft=34;spacingRight=4;whiteSpace=wrap;overflow=hidden;rotatable=0;points=[[0,0.5],[1,0.5]];portConstraint=eastwest;dropTarget=0;" parent="dTHn6nIExSgULMflRPYe-15" vertex="1">
          <mxGeometry y="56" width="160" height="26" as="geometry" />
        </mxCell>
        <mxCell id="dTHn6nIExSgULMflRPYe-19" value="" style="shape=partialRectangle;top=0;left=0;bottom=0;html=1;fillColor=none;align=left;verticalAlign=top;spacingLeft=4;spacingRight=4;whiteSpace=wrap;overflow=hidden;rotatable=0;points=[];portConstraint=eastwest;part=1;" parent="dTHn6nIExSgULMflRPYe-18" vertex="1" connectable="0">
          <mxGeometry width="30" height="26" as="geometry" />
        </mxCell>
        <mxCell id="dTHn6nIExSgULMflRPYe-20" value="Symbol" style="shape=partialRectangle;top=0;left=0;right=0;bottom=0;html=1;align=left;verticalAlign=top;fillColor=none;spacingLeft=34;spacingRight=4;whiteSpace=wrap;overflow=hidden;rotatable=0;points=[[0,0.5],[1,0.5]];portConstraint=eastwest;dropTarget=0;" parent="dTHn6nIExSgULMflRPYe-15" vertex="1">
          <mxGeometry y="82" width="160" height="28" as="geometry" />
        </mxCell>
        <mxCell id="dTHn6nIExSgULMflRPYe-21" value="" style="shape=partialRectangle;top=0;left=0;bottom=0;html=1;fillColor=none;align=left;verticalAlign=top;spacingLeft=4;spacingRight=4;whiteSpace=wrap;overflow=hidden;rotatable=0;points=[];portConstraint=eastwest;part=1;" parent="dTHn6nIExSgULMflRPYe-20" vertex="1" connectable="0">
          <mxGeometry width="30" height="28" as="geometry" />
        </mxCell>
        <mxCell id="dTHn6nIExSgULMflRPYe-22" value="Uživatel" style="swimlane;html=1;fontStyle=0;childLayout=stackLayout;horizontal=1;startSize=26;fillColor=#e0e0e0;horizontalStack=0;resizeParent=1;resizeLast=0;collapsible=1;marginBottom=0;swimlaneFillColor=#ffffff;align=center;rounded=0;shadow=0;comic=0;labelBackgroundColor=none;strokeWidth=1;fontFamily=Verdana;fontSize=14" parent="1" vertex="1">
          <mxGeometry x="680" y="240" width="130" height="110" as="geometry" />
        </mxCell>
        <mxCell id="dTHn6nIExSgULMflRPYe-23" value="ID_uživatele" style="shape=partialRectangle;top=0;left=0;right=0;bottom=1;html=1;align=left;verticalAlign=middle;fillColor=none;spacingLeft=34;spacingRight=4;whiteSpace=wrap;overflow=hidden;rotatable=0;points=[[0,0.5],[1,0.5]];portConstraint=eastwest;dropTarget=0;fontStyle=5;" parent="dTHn6nIExSgULMflRPYe-22" vertex="1">
          <mxGeometry y="26" width="130" height="30" as="geometry" />
        </mxCell>
        <mxCell id="dTHn6nIExSgULMflRPYe-24" value="PK" style="shape=partialRectangle;top=0;left=0;bottom=0;html=1;fillColor=none;align=left;verticalAlign=middle;spacingLeft=4;spacingRight=4;whiteSpace=wrap;overflow=hidden;rotatable=0;points=[];portConstraint=eastwest;part=1;" parent="dTHn6nIExSgULMflRPYe-23" vertex="1" connectable="0">
          <mxGeometry width="30" height="30" as="geometry" />
        </mxCell>
        <mxCell id="dTHn6nIExSgULMflRPYe-25" value="Jméno" style="shape=partialRectangle;top=0;left=0;right=0;bottom=0;html=1;align=left;verticalAlign=top;fillColor=none;spacingLeft=34;spacingRight=4;whiteSpace=wrap;overflow=hidden;rotatable=0;points=[[0,0.5],[1,0.5]];portConstraint=eastwest;dropTarget=0;" parent="dTHn6nIExSgULMflRPYe-22" vertex="1">
          <mxGeometry y="56" width="130" height="26" as="geometry" />
        </mxCell>
        <mxCell id="dTHn6nIExSgULMflRPYe-26" value="" style="shape=partialRectangle;top=0;left=0;bottom=0;html=1;fillColor=none;align=left;verticalAlign=top;spacingLeft=4;spacingRight=4;whiteSpace=wrap;overflow=hidden;rotatable=0;points=[];portConstraint=eastwest;part=1;" parent="dTHn6nIExSgULMflRPYe-25" vertex="1" connectable="0">
          <mxGeometry width="30" height="26" as="geometry" />
        </mxCell>
        <mxCell id="dTHn6nIExSgULMflRPYe-27" value="Přijmení" style="shape=partialRectangle;top=0;left=0;right=0;bottom=0;html=1;align=left;verticalAlign=top;fillColor=none;spacingLeft=34;spacingRight=4;whiteSpace=wrap;overflow=hidden;rotatable=0;points=[[0,0.5],[1,0.5]];portConstraint=eastwest;dropTarget=0;" parent="dTHn6nIExSgULMflRPYe-22" vertex="1">
          <mxGeometry y="82" width="130" height="28" as="geometry" />
        </mxCell>
        <mxCell id="dTHn6nIExSgULMflRPYe-28" value="" style="shape=partialRectangle;top=0;left=0;bottom=0;html=1;fillColor=none;align=left;verticalAlign=top;spacingLeft=4;spacingRight=4;whiteSpace=wrap;overflow=hidden;rotatable=0;points=[];portConstraint=eastwest;part=1;" parent="dTHn6nIExSgULMflRPYe-27" vertex="1" connectable="0">
          <mxGeometry width="30" height="28" as="geometry" />
        </mxCell>
        <mxCell id="dTHn6nIExSgULMflRPYe-29" value="Imperátor Palpatine" style="swimlane;html=1;fontStyle=0;childLayout=stackLayout;horizontal=1;startSize=26;fillColor=#e0e0e0;horizontalStack=0;resizeParent=1;resizeLast=0;collapsible=1;marginBottom=0;swimlaneFillColor=#ffffff;align=center;rounded=0;shadow=0;comic=0;labelBackgroundColor=none;strokeWidth=1;fontFamily=Verdana;fontSize=14" parent="1" vertex="1">
          <mxGeometry x="810" y="413" width="160" height="40" as="geometry" />
        </mxCell>
        <mxCell id="dTHn6nIExSgULMflRPYe-117" style="edgeStyle=orthogonalEdgeStyle;rounded=0;orthogonalLoop=1;jettySize=auto;html=1;exitX=0.75;exitY=0;exitDx=0;exitDy=0;endArrow=none;endFill=0;endSize=15;startFill=0;" parent="1" source="dTHn6nIExSgULMflRPYe-36" edge="1">
          <mxGeometry relative="1" as="geometry">
            <mxPoint x="750" y="380" as="targetPoint" />
            <Array as="points">
              <mxPoint x="648" y="380" />
              <mxPoint x="739" y="380" />
            </Array>
          </mxGeometry>
        </mxCell>
        <mxCell id="dTHn6nIExSgULMflRPYe-120" style="edgeStyle=orthogonalEdgeStyle;rounded=0;orthogonalLoop=1;jettySize=auto;html=1;entryX=0.5;entryY=0;entryDx=0;entryDy=0;endArrow=none;startFill=0;startArrow=blockThin;startSize=15;" parent="1" source="dTHn6nIExSgULMflRPYe-36" target="dTHn6nIExSgULMflRPYe-56" edge="1">
          <mxGeometry relative="1" as="geometry" />
        </mxCell>
        <mxCell id="dTHn6nIExSgULMflRPYe-36" value="Rytíř Jedi" style="swimlane;html=1;fontStyle=0;childLayout=stackLayout;horizontal=1;startSize=26;fillColor=#e0e0e0;horizontalStack=0;resizeParent=1;resizeLast=0;collapsible=1;marginBottom=0;swimlaneFillColor=#ffffff;align=center;rounded=0;shadow=0;comic=0;labelBackgroundColor=none;strokeWidth=1;fontFamily=Verdana;fontSize=14" parent="1" vertex="1">
          <mxGeometry x="550" y="413" width="130" height="110" as="geometry" />
        </mxCell>
        <mxCell id="dTHn6nIExSgULMflRPYe-121" style="edgeStyle=orthogonalEdgeStyle;rounded=0;orthogonalLoop=1;jettySize=auto;html=1;entryX=1;entryY=0.5;entryDx=0;entryDy=0;endArrow=none;startFill=0;" parent="dTHn6nIExSgULMflRPYe-36" source="dTHn6nIExSgULMflRPYe-39" target="dTHn6nIExSgULMflRPYe-43" edge="1">
          <mxGeometry relative="1" as="geometry">
            <Array as="points">
              <mxPoint x="180" y="39" />
              <mxPoint x="180" y="94" />
            </Array>
          </mxGeometry>
        </mxCell>
        <mxCell id="dTHn6nIExSgULMflRPYe-124" value="0..n" style="edgeLabel;html=1;align=center;verticalAlign=middle;resizable=0;points=[];" parent="dTHn6nIExSgULMflRPYe-121" vertex="1" connectable="0">
          <mxGeometry x="-0.7563" y="2" relative="1" as="geometry">
            <mxPoint x="-5" y="12" as="offset" />
          </mxGeometry>
        </mxCell>
        <mxCell id="dTHn6nIExSgULMflRPYe-125" value="0..n" style="edgeLabel;html=1;align=center;verticalAlign=middle;resizable=0;points=[];" parent="dTHn6nIExSgULMflRPYe-121" vertex="1" connectable="0">
          <mxGeometry x="0.828" y="2" relative="1" as="geometry">
            <mxPoint x="1" y="10" as="offset" />
          </mxGeometry>
        </mxCell>
        <mxCell id="dTHn6nIExSgULMflRPYe-126" value="Padawanem" style="edgeLabel;html=1;align=center;verticalAlign=middle;resizable=0;points=[];" parent="dTHn6nIExSgULMflRPYe-121" vertex="1" connectable="0">
          <mxGeometry x="-0.5556" y="4" relative="1" as="geometry">
            <mxPoint y="-9" as="offset" />
          </mxGeometry>
        </mxCell>
        <mxCell id="dTHn6nIExSgULMflRPYe-39" value="Rasa" style="shape=partialRectangle;top=0;left=0;right=0;bottom=0;html=1;align=left;verticalAlign=top;fillColor=none;spacingLeft=34;spacingRight=4;whiteSpace=wrap;overflow=hidden;rotatable=0;points=[[0,0.5],[1,0.5]];portConstraint=eastwest;dropTarget=0;" parent="dTHn6nIExSgULMflRPYe-36" vertex="1">
          <mxGeometry y="26" width="130" height="26" as="geometry" />
        </mxCell>
        <mxCell id="dTHn6nIExSgULMflRPYe-40" value="" style="shape=partialRectangle;top=0;left=0;bottom=0;html=1;fillColor=none;align=left;verticalAlign=top;spacingLeft=4;spacingRight=4;whiteSpace=wrap;overflow=hidden;rotatable=0;points=[];portConstraint=eastwest;part=1;" parent="dTHn6nIExSgULMflRPYe-39" vertex="1" connectable="0">
          <mxGeometry width="30" height="26" as="geometry" />
        </mxCell>
        <mxCell id="dTHn6nIExSgULMflRPYe-41" value="Midi-chloriany" style="shape=partialRectangle;top=0;left=0;right=0;bottom=0;html=1;align=left;verticalAlign=top;fillColor=none;spacingLeft=34;spacingRight=4;whiteSpace=wrap;overflow=hidden;rotatable=0;points=[[0,0.5],[1,0.5]];portConstraint=eastwest;dropTarget=0;" parent="dTHn6nIExSgULMflRPYe-36" vertex="1">
          <mxGeometry y="52" width="130" height="28" as="geometry" />
        </mxCell>
        <mxCell id="dTHn6nIExSgULMflRPYe-42" value="" style="shape=partialRectangle;top=0;left=0;bottom=0;html=1;fillColor=none;align=left;verticalAlign=top;spacingLeft=4;spacingRight=4;whiteSpace=wrap;overflow=hidden;rotatable=0;points=[];portConstraint=eastwest;part=1;" parent="dTHn6nIExSgULMflRPYe-41" vertex="1" connectable="0">
          <mxGeometry width="30" height="28" as="geometry" />
        </mxCell>
        <mxCell id="dTHn6nIExSgULMflRPYe-43" value="Narozeniny" style="shape=partialRectangle;top=0;left=0;right=0;bottom=0;html=1;align=left;verticalAlign=top;fillColor=none;spacingLeft=34;spacingRight=4;whiteSpace=wrap;overflow=hidden;rotatable=0;points=[[0,0.5],[1,0.5]];portConstraint=eastwest;dropTarget=0;" parent="dTHn6nIExSgULMflRPYe-36" vertex="1">
          <mxGeometry y="80" width="130" height="28" as="geometry" />
        </mxCell>
        <mxCell id="dTHn6nIExSgULMflRPYe-44" value="" style="shape=partialRectangle;top=0;left=0;bottom=0;html=1;fillColor=none;align=left;verticalAlign=top;spacingLeft=4;spacingRight=4;whiteSpace=wrap;overflow=hidden;rotatable=0;points=[];portConstraint=eastwest;part=1;" parent="dTHn6nIExSgULMflRPYe-43" vertex="1" connectable="0">
          <mxGeometry width="30" height="28" as="geometry" />
        </mxCell>
        <mxCell id="dTHn6nIExSgULMflRPYe-45" value="Světelný meč" style="swimlane;html=1;fontStyle=0;childLayout=stackLayout;horizontal=1;startSize=26;fillColor=#e0e0e0;horizontalStack=0;resizeParent=1;resizeLast=0;collapsible=1;marginBottom=0;swimlaneFillColor=#ffffff;align=center;rounded=0;shadow=0;comic=0;labelBackgroundColor=none;strokeWidth=1;fontFamily=Verdana;fontSize=14" parent="1" vertex="1">
          <mxGeometry x="740" y="660" width="160" height="166" as="geometry" />
        </mxCell>
        <mxCell id="dTHn6nIExSgULMflRPYe-46" value="ID světelného meče" style="shape=partialRectangle;top=0;left=0;right=0;bottom=1;html=1;align=left;verticalAlign=middle;fillColor=none;spacingLeft=34;spacingRight=4;whiteSpace=wrap;overflow=hidden;rotatable=0;points=[[0,0.5],[1,0.5]];portConstraint=eastwest;dropTarget=0;fontStyle=5;" parent="dTHn6nIExSgULMflRPYe-45" vertex="1">
          <mxGeometry y="26" width="160" height="30" as="geometry" />
        </mxCell>
        <mxCell id="dTHn6nIExSgULMflRPYe-47" value="PK" style="shape=partialRectangle;top=0;left=0;bottom=0;html=1;fillColor=none;align=left;verticalAlign=middle;spacingLeft=4;spacingRight=4;whiteSpace=wrap;overflow=hidden;rotatable=0;points=[];portConstraint=eastwest;part=1;" parent="dTHn6nIExSgULMflRPYe-46" vertex="1" connectable="0">
          <mxGeometry width="30" height="30" as="geometry" />
        </mxCell>
        <mxCell id="dTHn6nIExSgULMflRPYe-48" value="Název" style="shape=partialRectangle;top=0;left=0;right=0;bottom=0;html=1;align=left;verticalAlign=top;fillColor=none;spacingLeft=34;spacingRight=4;whiteSpace=wrap;overflow=hidden;rotatable=0;points=[[0,0.5],[1,0.5]];portConstraint=eastwest;dropTarget=0;" parent="dTHn6nIExSgULMflRPYe-45" vertex="1">
          <mxGeometry y="56" width="160" height="26" as="geometry" />
        </mxCell>
        <mxCell id="dTHn6nIExSgULMflRPYe-49" value="" style="shape=partialRectangle;top=0;left=0;bottom=0;html=1;fillColor=none;align=left;verticalAlign=top;spacingLeft=4;spacingRight=4;whiteSpace=wrap;overflow=hidden;rotatable=0;points=[];portConstraint=eastwest;part=1;" parent="dTHn6nIExSgULMflRPYe-48" vertex="1" connectable="0">
          <mxGeometry width="30" height="26" as="geometry" />
        </mxCell>
        <mxCell id="dTHn6nIExSgULMflRPYe-50" value="Typ" style="shape=partialRectangle;top=0;left=0;right=0;bottom=0;html=1;align=left;verticalAlign=top;fillColor=none;spacingLeft=34;spacingRight=4;whiteSpace=wrap;overflow=hidden;rotatable=0;points=[[0,0.5],[1,0.5]];portConstraint=eastwest;dropTarget=0;" parent="dTHn6nIExSgULMflRPYe-45" vertex="1">
          <mxGeometry y="82" width="160" height="28" as="geometry" />
        </mxCell>
        <mxCell id="dTHn6nIExSgULMflRPYe-51" value="" style="shape=partialRectangle;top=0;left=0;bottom=0;html=1;fillColor=none;align=left;verticalAlign=top;spacingLeft=4;spacingRight=4;whiteSpace=wrap;overflow=hidden;rotatable=0;points=[];portConstraint=eastwest;part=1;" parent="dTHn6nIExSgULMflRPYe-50" vertex="1" connectable="0">
          <mxGeometry width="30" height="28" as="geometry" />
        </mxCell>
        <mxCell id="dTHn6nIExSgULMflRPYe-52" value="Barva" style="shape=partialRectangle;top=0;left=0;right=0;bottom=0;html=1;align=left;verticalAlign=top;fillColor=none;spacingLeft=34;spacingRight=4;whiteSpace=wrap;overflow=hidden;rotatable=0;points=[[0,0.5],[1,0.5]];portConstraint=eastwest;dropTarget=0;" parent="dTHn6nIExSgULMflRPYe-45" vertex="1">
          <mxGeometry y="110" width="160" height="28" as="geometry" />
        </mxCell>
        <mxCell id="dTHn6nIExSgULMflRPYe-53" value="" style="shape=partialRectangle;top=0;left=0;bottom=0;html=1;fillColor=none;align=left;verticalAlign=top;spacingLeft=4;spacingRight=4;whiteSpace=wrap;overflow=hidden;rotatable=0;points=[];portConstraint=eastwest;part=1;" parent="dTHn6nIExSgULMflRPYe-52" vertex="1" connectable="0">
          <mxGeometry width="30" height="28" as="geometry" />
        </mxCell>
        <mxCell id="dTHn6nIExSgULMflRPYe-54" value="Stav opotřebení" style="shape=partialRectangle;top=0;left=0;right=0;bottom=0;html=1;align=left;verticalAlign=top;fillColor=none;spacingLeft=34;spacingRight=4;whiteSpace=wrap;overflow=hidden;rotatable=0;points=[[0,0.5],[1,0.5]];portConstraint=eastwest;dropTarget=0;" parent="dTHn6nIExSgULMflRPYe-45" vertex="1">
          <mxGeometry y="138" width="160" height="28" as="geometry" />
        </mxCell>
        <mxCell id="dTHn6nIExSgULMflRPYe-55" value="" style="shape=partialRectangle;top=0;left=0;bottom=0;html=1;fillColor=none;align=left;verticalAlign=top;spacingLeft=4;spacingRight=4;whiteSpace=wrap;overflow=hidden;rotatable=0;points=[];portConstraint=eastwest;part=1;" parent="dTHn6nIExSgULMflRPYe-54" vertex="1" connectable="0">
          <mxGeometry width="30" height="28" as="geometry" />
        </mxCell>
        <mxCell id="dTHn6nIExSgULMflRPYe-56" value="Velitel" style="swimlane;html=1;fontStyle=0;childLayout=stackLayout;horizontal=1;startSize=26;fillColor=#e0e0e0;horizontalStack=0;resizeParent=1;resizeLast=0;collapsible=1;marginBottom=0;swimlaneFillColor=#ffffff;align=center;rounded=0;shadow=0;comic=0;labelBackgroundColor=none;strokeWidth=1;fontFamily=Verdana;fontSize=14" parent="1" vertex="1">
          <mxGeometry x="570" y="660" width="90" height="40" as="geometry" />
        </mxCell>
        <mxCell id="dTHn6nIExSgULMflRPYe-64" value="Loď" style="swimlane;html=1;fontStyle=0;childLayout=stackLayout;horizontal=1;startSize=26;fillColor=#e0e0e0;horizontalStack=0;resizeParent=1;resizeLast=0;collapsible=1;marginBottom=0;swimlaneFillColor=#ffffff;align=center;rounded=0;shadow=0;comic=0;labelBackgroundColor=none;strokeWidth=1;fontFamily=Verdana;fontSize=14" parent="1" vertex="1">
          <mxGeometry x="30" y="413" width="160" height="140" as="geometry" />
        </mxCell>
        <mxCell id="dTHn6nIExSgULMflRPYe-65" value="ID lodi" style="shape=partialRectangle;top=0;left=0;right=0;bottom=1;html=1;align=left;verticalAlign=middle;fillColor=none;spacingLeft=34;spacingRight=4;whiteSpace=wrap;overflow=hidden;rotatable=0;points=[[0,0.5],[1,0.5]];portConstraint=eastwest;dropTarget=0;fontStyle=5;" parent="dTHn6nIExSgULMflRPYe-64" vertex="1">
          <mxGeometry y="26" width="160" height="30" as="geometry" />
        </mxCell>
        <mxCell id="dTHn6nIExSgULMflRPYe-66" value="PK" style="shape=partialRectangle;top=0;left=0;bottom=0;html=1;fillColor=none;align=left;verticalAlign=middle;spacingLeft=4;spacingRight=4;whiteSpace=wrap;overflow=hidden;rotatable=0;points=[];portConstraint=eastwest;part=1;" parent="dTHn6nIExSgULMflRPYe-65" vertex="1" connectable="0">
          <mxGeometry width="30" height="30" as="geometry" />
        </mxCell>
        <mxCell id="dTHn6nIExSgULMflRPYe-67" value="Název" style="shape=partialRectangle;top=0;left=0;right=0;bottom=0;html=1;align=left;verticalAlign=top;fillColor=none;spacingLeft=34;spacingRight=4;whiteSpace=wrap;overflow=hidden;rotatable=0;points=[[0,0.5],[1,0.5]];portConstraint=eastwest;dropTarget=0;" parent="dTHn6nIExSgULMflRPYe-64" vertex="1">
          <mxGeometry y="56" width="160" height="26" as="geometry" />
        </mxCell>
        <mxCell id="dTHn6nIExSgULMflRPYe-68" value="" style="shape=partialRectangle;top=0;left=0;bottom=0;html=1;fillColor=none;align=left;verticalAlign=top;spacingLeft=4;spacingRight=4;whiteSpace=wrap;overflow=hidden;rotatable=0;points=[];portConstraint=eastwest;part=1;" parent="dTHn6nIExSgULMflRPYe-67" vertex="1" connectable="0">
          <mxGeometry width="30" height="26" as="geometry" />
        </mxCell>
        <mxCell id="dTHn6nIExSgULMflRPYe-69" value="Typ" style="shape=partialRectangle;top=0;left=0;right=0;bottom=0;html=1;align=left;verticalAlign=top;fillColor=none;spacingLeft=34;spacingRight=4;whiteSpace=wrap;overflow=hidden;rotatable=0;points=[[0,0.5],[1,0.5]];portConstraint=eastwest;dropTarget=0;" parent="dTHn6nIExSgULMflRPYe-64" vertex="1">
          <mxGeometry y="82" width="160" height="28" as="geometry" />
        </mxCell>
        <mxCell id="dTHn6nIExSgULMflRPYe-70" value="" style="shape=partialRectangle;top=0;left=0;bottom=0;html=1;fillColor=none;align=left;verticalAlign=top;spacingLeft=4;spacingRight=4;whiteSpace=wrap;overflow=hidden;rotatable=0;points=[];portConstraint=eastwest;part=1;" parent="dTHn6nIExSgULMflRPYe-69" vertex="1" connectable="0">
          <mxGeometry width="30" height="28" as="geometry" />
        </mxCell>
        <mxCell id="dTHn6nIExSgULMflRPYe-71" value="Stav poškození" style="shape=partialRectangle;top=0;left=0;right=0;bottom=0;html=1;align=left;verticalAlign=top;fillColor=none;spacingLeft=34;spacingRight=4;whiteSpace=wrap;overflow=hidden;rotatable=0;points=[[0,0.5],[1,0.5]];portConstraint=eastwest;dropTarget=0;" parent="dTHn6nIExSgULMflRPYe-64" vertex="1">
          <mxGeometry y="110" width="160" height="28" as="geometry" />
        </mxCell>
        <mxCell id="dTHn6nIExSgULMflRPYe-72" value="" style="shape=partialRectangle;top=0;left=0;bottom=0;html=1;fillColor=none;align=left;verticalAlign=top;spacingLeft=4;spacingRight=4;whiteSpace=wrap;overflow=hidden;rotatable=0;points=[];portConstraint=eastwest;part=1;" parent="dTHn6nIExSgULMflRPYe-71" vertex="1" connectable="0">
          <mxGeometry width="30" height="28" as="geometry" />
        </mxCell>
        <mxCell id="dTHn6nIExSgULMflRPYe-75" value="Flotila" style="swimlane;html=1;fontStyle=0;childLayout=stackLayout;horizontal=1;startSize=26;fillColor=#e0e0e0;horizontalStack=0;resizeParent=1;resizeLast=0;collapsible=1;marginBottom=0;swimlaneFillColor=#ffffff;align=center;rounded=0;shadow=0;comic=0;labelBackgroundColor=none;strokeWidth=1;fontFamily=Verdana;fontSize=14" parent="1" vertex="1">
          <mxGeometry x="280" y="660" width="160" height="92" as="geometry" />
        </mxCell>
        <mxCell id="dTHn6nIExSgULMflRPYe-76" value="ID flotily" style="shape=partialRectangle;top=0;left=0;right=0;bottom=1;html=1;align=left;verticalAlign=middle;fillColor=none;spacingLeft=34;spacingRight=4;whiteSpace=wrap;overflow=hidden;rotatable=0;points=[[0,0.5],[1,0.5]];portConstraint=eastwest;dropTarget=0;fontStyle=5;" parent="dTHn6nIExSgULMflRPYe-75" vertex="1">
          <mxGeometry y="26" width="160" height="30" as="geometry" />
        </mxCell>
        <mxCell id="dTHn6nIExSgULMflRPYe-77" value="PK" style="shape=partialRectangle;top=0;left=0;bottom=0;html=1;fillColor=none;align=left;verticalAlign=middle;spacingLeft=4;spacingRight=4;whiteSpace=wrap;overflow=hidden;rotatable=0;points=[];portConstraint=eastwest;part=1;" parent="dTHn6nIExSgULMflRPYe-76" vertex="1" connectable="0">
          <mxGeometry width="30" height="30" as="geometry" />
        </mxCell>
        <mxCell id="dTHn6nIExSgULMflRPYe-78" value="Název" style="shape=partialRectangle;top=0;left=0;right=0;bottom=0;html=1;align=left;verticalAlign=top;fillColor=none;spacingLeft=34;spacingRight=4;whiteSpace=wrap;overflow=hidden;rotatable=0;points=[[0,0.5],[1,0.5]];portConstraint=eastwest;dropTarget=0;" parent="dTHn6nIExSgULMflRPYe-75" vertex="1">
          <mxGeometry y="56" width="160" height="26" as="geometry" />
        </mxCell>
        <mxCell id="dTHn6nIExSgULMflRPYe-79" value="" style="shape=partialRectangle;top=0;left=0;bottom=0;html=1;fillColor=none;align=left;verticalAlign=top;spacingLeft=4;spacingRight=4;whiteSpace=wrap;overflow=hidden;rotatable=0;points=[];portConstraint=eastwest;part=1;" parent="dTHn6nIExSgULMflRPYe-78" vertex="1" connectable="0">
          <mxGeometry width="30" height="26" as="geometry" />
        </mxCell>
        <mxCell id="dTHn6nIExSgULMflRPYe-80" value="" style="shape=partialRectangle;top=0;left=0;right=0;bottom=0;html=1;align=left;verticalAlign=top;fillColor=none;spacingLeft=34;spacingRight=4;whiteSpace=wrap;overflow=hidden;rotatable=0;points=[[0,0.5],[1,0.5]];portConstraint=eastwest;dropTarget=0;" parent="dTHn6nIExSgULMflRPYe-75" vertex="1">
          <mxGeometry y="82" width="160" height="10" as="geometry" />
        </mxCell>
        <mxCell id="dTHn6nIExSgULMflRPYe-81" value="" style="shape=partialRectangle;top=0;left=0;bottom=0;html=1;fillColor=none;align=left;verticalAlign=top;spacingLeft=4;spacingRight=4;whiteSpace=wrap;overflow=hidden;rotatable=0;points=[];portConstraint=eastwest;part=1;" parent="dTHn6nIExSgULMflRPYe-80" vertex="1" connectable="0">
          <mxGeometry width="30" height="10" as="geometry" />
        </mxCell>
        <mxCell id="dTHn6nIExSgULMflRPYe-82" value="Rozkaz" style="swimlane;html=1;fontStyle=0;childLayout=stackLayout;horizontal=1;startSize=26;fillColor=#e0e0e0;horizontalStack=0;resizeParent=1;resizeLast=0;collapsible=1;marginBottom=0;swimlaneFillColor=#ffffff;align=center;rounded=0;shadow=0;comic=0;labelBackgroundColor=none;strokeWidth=1;fontFamily=Verdana;fontSize=14" parent="1" vertex="1">
          <mxGeometry x="30" y="660" width="160" height="160" as="geometry" />
        </mxCell>
        <mxCell id="dTHn6nIExSgULMflRPYe-83" value="ID rozkazu" style="shape=partialRectangle;top=0;left=0;right=0;bottom=1;html=1;align=left;verticalAlign=middle;fillColor=none;spacingLeft=34;spacingRight=4;whiteSpace=wrap;overflow=hidden;rotatable=0;points=[[0,0.5],[1,0.5]];portConstraint=eastwest;dropTarget=0;fontStyle=5;" parent="dTHn6nIExSgULMflRPYe-82" vertex="1">
          <mxGeometry y="26" width="160" height="30" as="geometry" />
        </mxCell>
        <mxCell id="dTHn6nIExSgULMflRPYe-84" value="PK" style="shape=partialRectangle;top=0;left=0;bottom=0;html=1;fillColor=none;align=left;verticalAlign=middle;spacingLeft=4;spacingRight=4;whiteSpace=wrap;overflow=hidden;rotatable=0;points=[];portConstraint=eastwest;part=1;" parent="dTHn6nIExSgULMflRPYe-83" vertex="1" connectable="0">
          <mxGeometry width="30" height="30" as="geometry" />
        </mxCell>
        <mxCell id="dTHn6nIExSgULMflRPYe-85" value="Typ" style="shape=partialRectangle;top=0;left=0;right=0;bottom=0;html=1;align=left;verticalAlign=top;fillColor=none;spacingLeft=34;spacingRight=4;whiteSpace=wrap;overflow=hidden;rotatable=0;points=[[0,0.5],[1,0.5]];portConstraint=eastwest;dropTarget=0;" parent="dTHn6nIExSgULMflRPYe-82" vertex="1">
          <mxGeometry y="56" width="160" height="26" as="geometry" />
        </mxCell>
        <mxCell id="dTHn6nIExSgULMflRPYe-86" value="" style="shape=partialRectangle;top=0;left=0;bottom=0;html=1;fillColor=none;align=left;verticalAlign=top;spacingLeft=4;spacingRight=4;whiteSpace=wrap;overflow=hidden;rotatable=0;points=[];portConstraint=eastwest;part=1;" parent="dTHn6nIExSgULMflRPYe-85" vertex="1" connectable="0">
          <mxGeometry width="30" height="26" as="geometry" />
        </mxCell>
        <mxCell id="dTHn6nIExSgULMflRPYe-89" value="Popis" style="shape=partialRectangle;top=0;left=0;right=0;bottom=0;html=1;align=left;verticalAlign=top;fillColor=none;spacingLeft=34;spacingRight=4;whiteSpace=wrap;overflow=hidden;rotatable=0;points=[[0,0.5],[1,0.5]];portConstraint=eastwest;dropTarget=0;" parent="dTHn6nIExSgULMflRPYe-82" vertex="1">
          <mxGeometry y="82" width="160" height="26" as="geometry" />
        </mxCell>
        <mxCell id="dTHn6nIExSgULMflRPYe-90" value="" style="shape=partialRectangle;top=0;left=0;bottom=0;html=1;fillColor=none;align=left;verticalAlign=top;spacingLeft=4;spacingRight=4;whiteSpace=wrap;overflow=hidden;rotatable=0;points=[];portConstraint=eastwest;part=1;" parent="dTHn6nIExSgULMflRPYe-89" vertex="1" connectable="0">
          <mxGeometry width="30" height="26" as="geometry" />
        </mxCell>
        <mxCell id="dTHn6nIExSgULMflRPYe-91" value="Datum" style="shape=partialRectangle;top=0;left=0;right=0;bottom=0;html=1;align=left;verticalAlign=top;fillColor=none;spacingLeft=34;spacingRight=4;whiteSpace=wrap;overflow=hidden;rotatable=0;points=[[0,0.5],[1,0.5]];portConstraint=eastwest;dropTarget=0;" parent="dTHn6nIExSgULMflRPYe-82" vertex="1">
          <mxGeometry y="108" width="160" height="26" as="geometry" />
        </mxCell>
        <mxCell id="dTHn6nIExSgULMflRPYe-92" value="" style="shape=partialRectangle;top=0;left=0;bottom=0;html=1;fillColor=none;align=left;verticalAlign=top;spacingLeft=4;spacingRight=4;whiteSpace=wrap;overflow=hidden;rotatable=0;points=[];portConstraint=eastwest;part=1;" parent="dTHn6nIExSgULMflRPYe-91" vertex="1" connectable="0">
          <mxGeometry width="30" height="26" as="geometry" />
        </mxCell>
        <mxCell id="dTHn6nIExSgULMflRPYe-93" value="Stav" style="shape=partialRectangle;top=0;left=0;right=0;bottom=0;html=1;align=left;verticalAlign=top;fillColor=none;spacingLeft=34;spacingRight=4;whiteSpace=wrap;overflow=hidden;rotatable=0;points=[[0,0.5],[1,0.5]];portConstraint=eastwest;dropTarget=0;" parent="dTHn6nIExSgULMflRPYe-82" vertex="1">
          <mxGeometry y="134" width="160" height="26" as="geometry" />
        </mxCell>
        <mxCell id="dTHn6nIExSgULMflRPYe-94" value="" style="shape=partialRectangle;top=0;left=0;bottom=0;html=1;fillColor=none;align=left;verticalAlign=top;spacingLeft=4;spacingRight=4;whiteSpace=wrap;overflow=hidden;rotatable=0;points=[];portConstraint=eastwest;part=1;" parent="dTHn6nIExSgULMflRPYe-93" vertex="1" connectable="0">
          <mxGeometry width="30" height="26" as="geometry" />
        </mxCell>
        <mxCell id="dTHn6nIExSgULMflRPYe-96" style="edgeStyle=elbowEdgeStyle;rounded=0;orthogonalLoop=1;jettySize=auto;html=1;exitX=1;exitY=0.5;exitDx=0;exitDy=0;entryX=0.5;entryY=0;entryDx=0;entryDy=0;endArrow=none;startFill=0;shadow=0;elbow=vertical;" parent="1" source="dTHn6nIExSgULMflRPYe-4" target="2e49270ec7c68f3f-80" edge="1">
          <mxGeometry relative="1" as="geometry">
            <Array as="points">
              <mxPoint x="490" y="83" />
            </Array>
          </mxGeometry>
        </mxCell>
        <mxCell id="dTHn6nIExSgULMflRPYe-97" value="&amp;lt;&amp;lt;identifikuje&amp;gt;&amp;gt;" style="edgeLabel;html=1;align=center;verticalAlign=middle;resizable=0;points=[];" parent="dTHn6nIExSgULMflRPYe-96" vertex="1" connectable="0">
          <mxGeometry x="0.7327" relative="1" as="geometry">
            <mxPoint y="-2" as="offset" />
          </mxGeometry>
        </mxCell>
        <mxCell id="dTHn6nIExSgULMflRPYe-102" value="1" style="edgeLabel;html=1;align=center;verticalAlign=middle;resizable=0;points=[];" parent="dTHn6nIExSgULMflRPYe-96" vertex="1" connectable="0">
          <mxGeometry x="0.8357" y="2" relative="1" as="geometry">
            <mxPoint x="-10" y="6" as="offset" />
          </mxGeometry>
        </mxCell>
        <mxCell id="dTHn6nIExSgULMflRPYe-103" value="0..n" style="edgeLabel;html=1;align=center;verticalAlign=middle;resizable=0;points=[];" parent="dTHn6nIExSgULMflRPYe-96" vertex="1" connectable="0">
          <mxGeometry x="-0.5965" y="-1" relative="1" as="geometry">
            <mxPoint x="-23" y="9" as="offset" />
          </mxGeometry>
        </mxCell>
        <mxCell id="dTHn6nIExSgULMflRPYe-104" style="edgeStyle=orthogonalEdgeStyle;rounded=0;orthogonalLoop=1;jettySize=auto;html=1;entryX=0.5;entryY=0;entryDx=0;entryDy=0;endArrow=none;startFill=0;" parent="1" source="dTHn6nIExSgULMflRPYe-4" target="dTHn6nIExSgULMflRPYe-15" edge="1">
          <mxGeometry relative="1" as="geometry" />
        </mxCell>
        <mxCell id="dTHn6nIExSgULMflRPYe-112" value="Složení" style="edgeLabel;html=1;align=center;verticalAlign=middle;resizable=0;points=[];" parent="dTHn6nIExSgULMflRPYe-104" vertex="1" connectable="0">
          <mxGeometry x="-0.5155" relative="1" as="geometry">
            <mxPoint x="23" y="-16" as="offset" />
          </mxGeometry>
        </mxCell>
        <mxCell id="dTHn6nIExSgULMflRPYe-113" value="0..n" style="edgeLabel;html=1;align=center;verticalAlign=middle;resizable=0;points=[];" parent="dTHn6nIExSgULMflRPYe-104" vertex="1" connectable="0">
          <mxGeometry x="-0.8452" y="4" relative="1" as="geometry">
            <mxPoint x="-1" y="6" as="offset" />
          </mxGeometry>
        </mxCell>
        <mxCell id="dTHn6nIExSgULMflRPYe-114" value="0..n" style="edgeLabel;html=1;align=center;verticalAlign=middle;resizable=0;points=[];" parent="dTHn6nIExSgULMflRPYe-104" vertex="1" connectable="0">
          <mxGeometry x="0.8701" y="-3" relative="1" as="geometry">
            <mxPoint x="-11" y="2" as="offset" />
          </mxGeometry>
        </mxCell>
        <mxCell id="dTHn6nIExSgULMflRPYe-106" style="edgeStyle=orthogonalEdgeStyle;rounded=0;orthogonalLoop=1;jettySize=auto;html=1;endArrow=none;startFill=0;dashed=1;" parent="1" edge="1">
          <mxGeometry relative="1" as="geometry">
            <mxPoint x="130" y="82" as="targetPoint" />
            <mxPoint x="130" y="52" as="sourcePoint" />
          </mxGeometry>
        </mxCell>
        <mxCell id="dTHn6nIExSgULMflRPYe-105" value="% zastoupení" style="whiteSpace=wrap;html=1;align=center;" parent="1" vertex="1">
          <mxGeometry x="80" y="10" width="100" height="40" as="geometry" />
        </mxCell>
        <mxCell id="dTHn6nIExSgULMflRPYe-109" style="edgeStyle=orthogonalEdgeStyle;rounded=0;orthogonalLoop=1;jettySize=auto;html=1;endArrow=none;startFill=0;dashed=1;" parent="1" edge="1">
          <mxGeometry relative="1" as="geometry">
            <mxPoint x="210" y="293" as="targetPoint" />
            <mxPoint x="210" y="263" as="sourcePoint" />
          </mxGeometry>
        </mxCell>
        <mxCell id="dTHn6nIExSgULMflRPYe-110" value="% zastoupení" style="whiteSpace=wrap;html=1;align=center;" parent="1" vertex="1">
          <mxGeometry x="160" y="220" width="100" height="40" as="geometry" />
        </mxCell>
        <mxCell id="dTHn6nIExSgULMflRPYe-123" style="edgeStyle=orthogonalEdgeStyle;rounded=0;orthogonalLoop=1;jettySize=auto;html=1;endArrow=none;startFill=0;dashed=1;" parent="1" source="dTHn6nIExSgULMflRPYe-122" edge="1">
          <mxGeometry relative="1" as="geometry">
            <mxPoint x="730" y="483" as="targetPoint" />
          </mxGeometry>
        </mxCell>
        <mxCell id="dTHn6nIExSgULMflRPYe-122" value="&lt;div&gt;Od&lt;/div&gt;&lt;div&gt;Do&lt;/div&gt;" style="whiteSpace=wrap;html=1;align=center;" parent="1" vertex="1">
          <mxGeometry x="760" y="463" width="40" height="40" as="geometry" />
        </mxCell>
        <mxCell id="dTHn6nIExSgULMflRPYe-127" style="rounded=0;orthogonalLoop=1;jettySize=auto;html=1;entryX=0.957;entryY=1.135;entryDx=0;entryDy=0;entryPerimeter=0;exitX=0;exitY=0;exitDx=0;exitDy=0;endArrow=none;startFill=0;" parent="1" source="dTHn6nIExSgULMflRPYe-45" target="dTHn6nIExSgULMflRPYe-43" edge="1">
          <mxGeometry relative="1" as="geometry" />
        </mxCell>
        <mxCell id="dTHn6nIExSgULMflRPYe-128" value="Vlastní" style="edgeLabel;html=1;align=center;verticalAlign=middle;resizable=0;points=[];" parent="dTHn6nIExSgULMflRPYe-127" vertex="1" connectable="0">
          <mxGeometry x="0.5696" y="2" relative="1" as="geometry">
            <mxPoint x="25" as="offset" />
          </mxGeometry>
        </mxCell>
        <mxCell id="dTHn6nIExSgULMflRPYe-129" value="0..n" style="edgeLabel;html=1;align=center;verticalAlign=middle;resizable=0;points=[];" parent="dTHn6nIExSgULMflRPYe-127" vertex="1" connectable="0">
          <mxGeometry x="-0.6867" y="1" relative="1" as="geometry">
            <mxPoint x="-8" y="15" as="offset" />
          </mxGeometry>
        </mxCell>
        <mxCell id="dTHn6nIExSgULMflRPYe-130" value="0..n" style="edgeLabel;html=1;align=center;verticalAlign=middle;resizable=0;points=[];" parent="dTHn6nIExSgULMflRPYe-127" vertex="1" connectable="0">
          <mxGeometry x="0.6628" y="-1" relative="1" as="geometry">
            <mxPoint x="-20" y="-5" as="offset" />
          </mxGeometry>
        </mxCell>
        <mxCell id="dTHn6nIExSgULMflRPYe-141" style="rounded=0;orthogonalLoop=1;jettySize=auto;html=1;entryX=0;entryY=0.5;entryDx=0;entryDy=0;exitX=1;exitY=0;exitDx=0;exitDy=0;endArrow=none;startFill=0;" parent="1" source="dTHn6nIExSgULMflRPYe-64" target="dTHn6nIExSgULMflRPYe-13" edge="1">
          <mxGeometry relative="1" as="geometry" />
        </mxCell>
        <mxCell id="dTHn6nIExSgULMflRPYe-142" value="Vyrobena na" style="edgeLabel;html=1;align=center;verticalAlign=middle;resizable=0;points=[];" parent="dTHn6nIExSgULMflRPYe-141" vertex="1" connectable="0">
          <mxGeometry x="-0.4455" relative="1" as="geometry">
            <mxPoint x="-28" y="-13" as="offset" />
          </mxGeometry>
        </mxCell>
        <mxCell id="dTHn6nIExSgULMflRPYe-143" value="0..1" style="edgeLabel;html=1;align=center;verticalAlign=middle;resizable=0;points=[];" parent="dTHn6nIExSgULMflRPYe-141" vertex="1" connectable="0">
          <mxGeometry x="0.6567" y="3" relative="1" as="geometry">
            <mxPoint x="7" y="13" as="offset" />
          </mxGeometry>
        </mxCell>
        <mxCell id="dTHn6nIExSgULMflRPYe-144" value="0..n" style="edgeLabel;html=1;align=center;verticalAlign=middle;resizable=0;points=[];" parent="dTHn6nIExSgULMflRPYe-141" vertex="1" connectable="0">
          <mxGeometry x="-0.7691" y="-1" relative="1" as="geometry">
            <mxPoint x="4" y="12" as="offset" />
          </mxGeometry>
        </mxCell>
        <mxCell id="dTHn6nIExSgULMflRPYe-145" style="edgeStyle=orthogonalEdgeStyle;rounded=0;orthogonalLoop=1;jettySize=auto;html=1;entryX=0;entryY=0.5;entryDx=0;entryDy=0;endArrow=none;startFill=0;" parent="1" source="dTHn6nIExSgULMflRPYe-85" target="dTHn6nIExSgULMflRPYe-78" edge="1">
          <mxGeometry relative="1" as="geometry" />
        </mxCell>
        <mxCell id="dTHn6nIExSgULMflRPYe-146" value="Plní" style="edgeLabel;html=1;align=center;verticalAlign=middle;resizable=0;points=[];" parent="dTHn6nIExSgULMflRPYe-145" vertex="1" connectable="0">
          <mxGeometry x="0.4359" y="2" relative="1" as="geometry">
            <mxPoint y="-11" as="offset" />
          </mxGeometry>
        </mxCell>
        <mxCell id="dTHn6nIExSgULMflRPYe-147" value="0..n" style="edgeLabel;html=1;align=center;verticalAlign=middle;resizable=0;points=[];" parent="dTHn6nIExSgULMflRPYe-145" vertex="1" connectable="0">
          <mxGeometry x="-0.7094" y="-4" relative="1" as="geometry">
            <mxPoint x="-3" y="5" as="offset" />
          </mxGeometry>
        </mxCell>
        <mxCell id="dTHn6nIExSgULMflRPYe-148" value="0..1" style="edgeLabel;html=1;align=center;verticalAlign=middle;resizable=0;points=[];" parent="dTHn6nIExSgULMflRPYe-145" vertex="1" connectable="0">
          <mxGeometry x="0.7607" y="-2" relative="1" as="geometry">
            <mxPoint y="7" as="offset" />
          </mxGeometry>
        </mxCell>
        <mxCell id="dTHn6nIExSgULMflRPYe-149" style="rounded=0;orthogonalLoop=1;jettySize=auto;html=1;exitX=0;exitY=0;exitDx=0;exitDy=0;entryX=1.007;entryY=1.095;entryDx=0;entryDy=0;entryPerimeter=0;endArrow=none;startFill=0;" parent="1" source="dTHn6nIExSgULMflRPYe-75" target="dTHn6nIExSgULMflRPYe-71" edge="1">
          <mxGeometry relative="1" as="geometry" />
        </mxCell>
        <mxCell id="dTHn6nIExSgULMflRPYe-150" value="Patří" style="edgeLabel;html=1;align=center;verticalAlign=middle;resizable=0;points=[];" parent="dTHn6nIExSgULMflRPYe-149" vertex="1" connectable="0">
          <mxGeometry x="0.7844" y="-1" relative="1" as="geometry">
            <mxPoint x="25" y="2" as="offset" />
          </mxGeometry>
        </mxCell>
        <mxCell id="dTHn6nIExSgULMflRPYe-151" value="0..1" style="edgeLabel;html=1;align=center;verticalAlign=middle;resizable=0;points=[];" parent="dTHn6nIExSgULMflRPYe-149" vertex="1" connectable="0">
          <mxGeometry x="-0.6732" relative="1" as="geometry">
            <mxPoint x="-5" y="13" as="offset" />
          </mxGeometry>
        </mxCell>
        <mxCell id="dTHn6nIExSgULMflRPYe-152" value="0..n" style="edgeLabel;html=1;align=center;verticalAlign=middle;resizable=0;points=[];" parent="dTHn6nIExSgULMflRPYe-149" vertex="1" connectable="0">
          <mxGeometry x="0.6429" y="3" relative="1" as="geometry">
            <mxPoint x="-18" y="-5" as="offset" />
          </mxGeometry>
        </mxCell>
        <mxCell id="dTHn6nIExSgULMflRPYe-154" style="edgeStyle=elbowEdgeStyle;rounded=0;orthogonalLoop=1;jettySize=auto;html=1;entryX=1.014;entryY=-0.115;entryDx=0;entryDy=0;entryPerimeter=0;elbow=vertical;endArrow=none;startFill=0;" parent="1" source="dTHn6nIExSgULMflRPYe-56" target="dTHn6nIExSgULMflRPYe-76" edge="1">
          <mxGeometry relative="1" as="geometry" />
        </mxCell>
        <mxCell id="dTHn6nIExSgULMflRPYe-155" value="1" style="edgeLabel;html=1;align=center;verticalAlign=middle;resizable=0;points=[];" parent="dTHn6nIExSgULMflRPYe-154" vertex="1" connectable="0">
          <mxGeometry x="-0.7739" y="-1" relative="1" as="geometry">
            <mxPoint x="4" y="13" as="offset" />
          </mxGeometry>
        </mxCell>
        <mxCell id="dTHn6nIExSgULMflRPYe-156" value="0..1" style="edgeLabel;html=1;align=center;verticalAlign=middle;resizable=0;points=[];" parent="dTHn6nIExSgULMflRPYe-154" vertex="1" connectable="0">
          <mxGeometry x="0.5828" relative="1" as="geometry">
            <mxPoint x="-15" y="9" as="offset" />
          </mxGeometry>
        </mxCell>
        <mxCell id="dTHn6nIExSgULMflRPYe-157" value="Velí" style="edgeLabel;html=1;align=center;verticalAlign=middle;resizable=0;points=[];" parent="dTHn6nIExSgULMflRPYe-154" vertex="1" connectable="0">
          <mxGeometry x="-0.3739" relative="1" as="geometry">
            <mxPoint x="6" y="-13" as="offset" />
          </mxGeometry>
        </mxCell>
        <mxCell id="dTHn6nIExSgULMflRPYe-158" style="edgeStyle=orthogonalEdgeStyle;rounded=0;orthogonalLoop=1;jettySize=auto;html=1;entryX=1;entryY=0.5;entryDx=0;entryDy=0;endArrow=none;startFill=0;" parent="1" source="dTHn6nIExSgULMflRPYe-25" target="dTHn6nIExSgULMflRPYe-11" edge="1">
          <mxGeometry relative="1" as="geometry">
            <Array as="points">
              <mxPoint x="620" y="313" />
              <mxPoint x="620" y="313" />
            </Array>
          </mxGeometry>
        </mxCell>
        <mxCell id="dTHn6nIExSgULMflRPYe-159" value="Narodil se na" style="edgeLabel;html=1;align=center;verticalAlign=middle;resizable=0;points=[];" parent="dTHn6nIExSgULMflRPYe-158" vertex="1" connectable="0">
          <mxGeometry x="-0.3675" y="-3" relative="1" as="geometry">
            <mxPoint x="6" y="-10" as="offset" />
          </mxGeometry>
        </mxCell>
        <mxCell id="dTHn6nIExSgULMflRPYe-161" value="0..1" style="edgeLabel;html=1;align=center;verticalAlign=middle;resizable=0;points=[];" parent="dTHn6nIExSgULMflRPYe-158" vertex="1" connectable="0">
          <mxGeometry x="0.8547" y="1" relative="1" as="geometry">
            <mxPoint x="-3" y="9" as="offset" />
          </mxGeometry>
        </mxCell>
        <mxCell id="dTHn6nIExSgULMflRPYe-162" value="0..n" style="edgeLabel;html=1;align=center;verticalAlign=middle;resizable=0;points=[];" parent="dTHn6nIExSgULMflRPYe-158" vertex="1" connectable="0">
          <mxGeometry x="-0.8718" relative="1" as="geometry">
            <mxPoint x="-1" y="8" as="offset" />
          </mxGeometry>
        </mxCell>
        <mxCell id="dTHn6nIExSgULMflRPYe-163" style="edgeStyle=elbowEdgeStyle;rounded=0;orthogonalLoop=1;jettySize=auto;html=1;entryX=1;entryY=0.5;entryDx=0;entryDy=0;elbow=vertical;endArrow=none;startFill=0;" parent="1" source="dTHn6nIExSgULMflRPYe-39" target="dTHn6nIExSgULMflRPYe-65" edge="1">
          <mxGeometry relative="1" as="geometry" />
        </mxCell>
        <mxCell id="dTHn6nIExSgULMflRPYe-164" value="Nachází se na palubě" style="edgeLabel;html=1;align=center;verticalAlign=middle;resizable=0;points=[];" parent="dTHn6nIExSgULMflRPYe-163" vertex="1" connectable="0">
          <mxGeometry x="0.0176" y="1" relative="1" as="geometry">
            <mxPoint x="73" y="-16" as="offset" />
          </mxGeometry>
        </mxCell>
        <mxCell id="dTHn6nIExSgULMflRPYe-165" value="0..n" style="edgeLabel;html=1;align=center;verticalAlign=middle;resizable=0;points=[];" parent="dTHn6nIExSgULMflRPYe-163" vertex="1" connectable="0">
          <mxGeometry x="-0.8458" y="1" relative="1" as="geometry">
            <mxPoint x="8" y="8" as="offset" />
          </mxGeometry>
        </mxCell>
        <mxCell id="dTHn6nIExSgULMflRPYe-166" value="0..1" style="edgeLabel;html=1;align=center;verticalAlign=middle;resizable=0;points=[];" parent="dTHn6nIExSgULMflRPYe-163" vertex="1" connectable="0">
          <mxGeometry x="0.8995" y="1" relative="1" as="geometry">
            <mxPoint x="-1" y="8" as="offset" />
          </mxGeometry>
        </mxCell>
        <mxCell id="dTHn6nIExSgULMflRPYe-167" style="edgeStyle=elbowEdgeStyle;rounded=0;orthogonalLoop=1;jettySize=auto;html=1;entryX=0.521;entryY=1.01;entryDx=0;entryDy=0;entryPerimeter=0;endArrow=none;startFill=0;" parent="1" source="dTHn6nIExSgULMflRPYe-75" target="dTHn6nIExSgULMflRPYe-13" edge="1">
          <mxGeometry relative="1" as="geometry" />
        </mxCell>
        <mxCell id="dTHn6nIExSgULMflRPYe-168" value="Obíhá" style="edgeLabel;html=1;align=center;verticalAlign=middle;resizable=0;points=[];" parent="dTHn6nIExSgULMflRPYe-167" vertex="1" connectable="0">
          <mxGeometry x="-0.5722" y="-1" relative="1" as="geometry">
            <mxPoint x="21" y="14" as="offset" />
          </mxGeometry>
        </mxCell>
        <mxCell id="dTHn6nIExSgULMflRPYe-169" value="0..n" style="edgeLabel;html=1;align=center;verticalAlign=middle;resizable=0;points=[];" parent="dTHn6nIExSgULMflRPYe-167" vertex="1" connectable="0">
          <mxGeometry x="-0.8613" y="1" relative="1" as="geometry">
            <mxPoint x="-12" y="6" as="offset" />
          </mxGeometry>
        </mxCell>
        <mxCell id="dTHn6nIExSgULMflRPYe-170" value="0..1" style="edgeLabel;html=1;align=center;verticalAlign=middle;resizable=0;points=[];" parent="dTHn6nIExSgULMflRPYe-167" vertex="1" connectable="0">
          <mxGeometry x="0.8959" y="2" relative="1" as="geometry">
            <mxPoint x="-13" y="-2" as="offset" />
          </mxGeometry>
        </mxCell>
        <mxCell id="dTHn6nIExSgULMflRPYe-118" style="edgeStyle=orthogonalEdgeStyle;rounded=0;orthogonalLoop=1;jettySize=auto;html=1;endArrow=blockThin;endFill=0;endSize=15;" parent="1" source="dTHn6nIExSgULMflRPYe-29" edge="1">
          <mxGeometry relative="1" as="geometry">
            <mxPoint x="750" y="350" as="targetPoint" />
            <Array as="points">
              <mxPoint x="880" y="380" />
              <mxPoint x="750" y="380" />
              <mxPoint x="750" y="350" />
            </Array>
          </mxGeometry>
        </mxCell>
      </root>
    </mxGraphModel>
  </diagram>
</mxfile>
